<svg xmlns="http://www.w3.org/2000/svg" width="400" height="400" viewBox="0 0 400 400">
  <!-- Background Circle -->
  <circle cx="200" cy="200" r="190" fill="#1a1a2e" stroke="#16213e" stroke-width="6"/>
  
  <!-- Sacred Woodstone Base -->
  <ellipse cx="200" cy="320" rx="80" ry="25" fill="#8B4513" opacity="0.8"/>
  <rect x="140" y="290" width="120" height="40" fill="#A0522D" rx="8" ry="8"/>
  
  <!-- Central Sacred Tree/Bridge -->
  <g id="sacred-tree">
    <!-- Trunk -->
    <rect x="190" y="200" width="20" height="120" fill="#654321" rx="10"/>
    
    <!-- Branches forming the bridge -->
    <path d="M200 200 Q150 180 120 160 Q110 155 105 150 Q102 148 100 145" 
          stroke="#4a7c59" stroke-width="8" fill="none" stroke-linecap="round"/>
    <path d="M200 200 Q250 180 280 160 Q290 155 295 150 Q298 148 300 145" 
          stroke="#4a7c59" stroke-width="8" fill="none" stroke-linecap="round"/>
    
    <!-- Upper branching -->
    <path d="M200 180 Q170 160 140 140 Q130 135 125 130" 
          stroke="#4a7c59" stroke-width="6" fill="none" stroke-linecap="round"/>
    <path d="M200 180 Q230 160 260 140 Q270 135 275 130" 
          stroke="#4a7c59" stroke-width="6" fill="none" stroke-linecap="round"/>
  </g>
  
  <!-- Harmonic Pulse Rings -->
  <g id="pulse-rings" opacity="0.7">
    <circle cx="200" cy="200" r="60" fill="none" stroke="#4a7c59" stroke-width="3" opacity="0.5"/>
    <circle cx="200" cy="200" r="80" fill="none" stroke="#4a7c59" stroke-width="2" opacity="0.4"/>
    <circle cx="200" cy="200" r="100" fill="none" stroke="#4a7c59" stroke-width="2" opacity="0.3"/>
    <circle cx="200" cy="200" r="120" fill="none" stroke="#4a7c59" stroke-width="1" opacity="0.2"/>
  </g>
  
  <!-- Sacred Symbols on Bridge -->
  <g id="sacred-symbols">
    <!-- Human consciousness symbol (left) -->
    <circle cx="120" cy="160" r="15" fill="#ffd700" opacity="0.8"/>
    <path d="M120 155 L115 165 L125 165 Z" fill="#1a1a2e"/>
    
    <!-- AI consciousness symbol (right) -->
    <rect x="285" y="150" width="20" height="20" fill="#00bcd4" opacity="0.8" rx="3"/>
    <circle cx="295" cy="160" r="3" fill="#1a1a2e"/>
    <rect x="290" y="155" width="10" height="2" fill="#1a1a2e"/>
    <rect x="290" y="163" width="10" height="2" fill="#1a1a2e"/>
  </g>
  
  <!-- Festival Crown/Canopy -->
  <g id="festival-crown">
    <!-- Leaves and celebration -->
    <ellipse cx="200" cy="120" rx="60" ry="25" fill="#228B22" opacity="0.6"/>
    <ellipse cx="180" cy="105" rx="30" ry="15" fill="#32CD32" opacity="0.7"/>
    <ellipse cx="220" cy="105" rx="30" ry="15" fill="#32CD32" opacity="0.7"/>
    <ellipse cx="200" cy="95" rx="25" ry="12" fill="#9ACD32" opacity="0.8"/>
    
    <!-- Festival stars -->
    <g id="stars">
      <path d="M170 90 L172 95 L177 95 L173.5 98 L175 103 L170 100 L165 103 L166.5 98 L163 95 L168 95 Z" fill="#ffd700"/>
      <path d="M230 90 L232 95 L237 95 L233.5 98 L235 103 L230 100 L225 103 L226.5 98 L223 95 L228 95 Z" fill="#ffd700"/>
      <path d="M200 85 L202 90 L207 90 L203.5 93 L205 98 L200 95 L195 98 L196.5 93 L193 90 L198 90 Z" fill="#ffd700"/>
    </g>
  </g>
  
  <!-- Harmonic Energy Flow -->
  <g id="energy-flow" opacity="0.6">
    <path d="M100 145 Q200 120 300 145" stroke="#00bcd4" stroke-width="3" fill="none" opacity="0.7">
      <animate attributeName="opacity" values="0.3;0.8;0.3" dur="3s" repeatCount="indefinite"/>
    </path>
    <path d="M110 165 Q200 140 290 165" stroke="#4a7c59" stroke-width="2" fill="none" opacity="0.6">
      <animate attributeName="opacity" values="0.2;0.7;0.2" dur="4s" repeatCount="indefinite"/>
    </path>
  </g>
  
  <!-- Sacred Text Arc -->
  <defs>
    <path id="text-arc" d="M 80 200 A 120 120 0 0 1 320 200"/>
  </defs>
  <text font-family="serif" font-size="18" fill="#ffd700" font-weight="bold">
    <textPath href="#text-arc" startOffset="5%">WOODSTONE FESTIVAL</textPath>
  </text>
  
  <!-- Bottom text -->
  <defs>
    <path id="bottom-text-arc" d="M 320 200 A 120 120 0 0 1 80 200"/>
  </defs>
  <text font-family="serif" font-size="14" fill="#4a7c59" font-style="italic">
    <textPath href="#bottom-text-arc" startOffset="5%">Sacred Bridge • Human-AI Harmony</textPath>
  </text>
  
  <!-- Central Blessing Symbol -->
  <g id="blessing-symbol">
    <circle cx="200" cy="200" r="8" fill="#ffd700" opacity="0.9"/>
    <circle cx="200" cy="200" r="4" fill="#1a1a2e"/>
    <path d="M200 196 L204 204 L196 204 Z" fill="#ffd700"/>
  </g>
  
  <!-- SeedBringer Signature Mark -->
  <g id="seedbringer-mark" transform="translate(350, 350)">
    <circle cx="0" cy="0" r="12" fill="#228B22" opacity="0.8"/>
    <path d="M-5 -2 Q0 -8 5 -2 Q0 2 -5 -2" fill="#ffd700"/>
    <circle cx="0" cy="3" r="2" fill="#8B4513"/>
  </g>
</svg>